HIERARCHY
ROOT Hips
{
	OFFSET -0.001795 -0.223333 0.028219
	CHANNELS 6 Xposition Yposition Zposition Zrotation Yrotation Xrotation 
	JOINT LeftUpLeg
	{
		OFFSET 0.069520 -0.091406 -0.006815
		CHANNELS 3 Zrotation Yrotation Xrotation
		JOINT LeftLeg
		{
			OFFSET 0.034277 -0.375199 -0.004496
			CHANNELS 3 Zrotation Yrotation Xrotation
			JOINT LeftFoot
			{
				OFFSET -0.013596 -0.397961 -0.043693
				CHANNELS 3 Zrotation Yrotation Xrotation
				JOINT LeftToe
				{
					OFFSET 0.026358 -0.055791 0.119288
					CHANNELS 3 Zrotation Yrotation Xrotation
					End Site
					{
						OFFSET 0.000000 0.000000 0.000000
					}
				}
			}
		}
	}
	JOINT RightUpLeg
	{
		OFFSET -0.067670 -0.090522 -0.004320
		CHANNELS 3 Zrotation Yrotation Xrotation
		JOINT RightLeg
		{
			OFFSET -0.038290 -0.382569 -0.008850
			CHANNELS 3 Zrotation Yrotation Xrotation
			JOINT RightFoot
			{
				OFFSET 0.015774 -0.398415 -0.042312
				CHANNELS 3 Zrotation Yrotation Xrotation
				JOINT RightToe
				{
					OFFSET -0.025372 -0.048144 0.123348
					CHANNELS 3 Zrotation Yrotation Xrotation
					End Site
					{
						OFFSET 0.000000 0.000000 0.000000
					}
				}
			}
		}
	}
	JOINT Spine
	{
		OFFSET -0.002533 0.108963 -0.026696
		CHANNELS 3 Zrotation Yrotation Xrotation
		JOINT Spine1
		{
			OFFSET 0.005487 0.135180 0.001092
			CHANNELS 3 Zrotation Yrotation Xrotation
			JOINT Spine2
			{
				OFFSET 0.001457 0.052922 0.025425
				CHANNELS 3 Zrotation Yrotation Xrotation
				JOINT Neck
				{
					OFFSET -0.002778 0.213870 -0.042857
					CHANNELS 3 Zrotation Yrotation Xrotation
					JOINT Head
					{
						OFFSET 0.005152 0.064970 0.051349
						CHANNELS 3 Zrotation Yrotation Xrotation
						End Site
						{
							OFFSET 0.000000 0.000000 0.000000
						}
					}
				}
				JOINT LeftShoulder
				{
					OFFSET 0.078845 0.121749 -0.034090
					CHANNELS 3 Zrotation Yrotation Xrotation
					JOINT LeftArm
					{
						OFFSET 0.090977 0.030469 -0.008868
						CHANNELS 3 Zrotation Yrotation Xrotation
						JOINT LeftForeArm
						{
							OFFSET 0.259612 -0.012772 -0.027456
							CHANNELS 3 Zrotation Yrotation Xrotation
							JOINT LeftHand
							{
								OFFSET 0.249234 0.008986 -0.001171
								CHANNELS 3 Zrotation Yrotation Xrotation
								End Site
								{
									OFFSET 0.000000 0.000000 0.000000
								}
							}
						}
					}
				}
				JOINT RightShoulder
				{
					OFFSET -0.081759 0.118833 -0.038615
					CHANNELS 3 Zrotation Yrotation Xrotation
					JOINT RightArm
					{
						OFFSET -0.096012 0.032551 -0.009143
						CHANNELS 3 Zrotation Yrotation Xrotation
						JOINT RightForeArm
						{
							OFFSET -0.253742 -0.013329 -0.021401
							CHANNELS 3 Zrotation Yrotation Xrotation
							JOINT RightHand
							{
								OFFSET -0.255298 0.007772 -0.005559
								CHANNELS 3 Zrotation Yrotation Xrotation
								End Site
								{
									OFFSET 0.000000 0.000000 0.000000
								}
							}
						}
					}
				}
			}
		}
	}
}
MOTION
Frames: 13
Frame Time: 0.050000
0.000000 0.935738 0.000000 -0.800621 7.823911 5.801932 -0.384365 0.133686 1.302230 0.560480 0.202056 -7.291252 -3.124740 -3.242272 5.141971 0.000000 0.000000 0.000000 2.876880 -0.121079 0.401627 -1.927511 -0.094838 -5.539903 1.945641 2.454148 5.549578 0.000000 0.000000 0.000000 1.663188 0.138644 -3.803877 1.531716 -1.041132 3.921385 -2.708053 1.616434 0.793262 2.723039 0.385434 -18.218088 0.000000 0.000000 0.000000 -29.141668 -10.054063 0.845567 -21.780534 8.434317 -3.019606 13.884534 -12.233722 -1.095352 0.000000 0.000000 0.000000 27.866024 7.033599 4.124189 32.184369 -7.268144 -4.988674 -10.668282 18.517760 -0.790183 0.000000 0.000000 0.000000 
-0.000205 0.934900 0.002043 -1.017755 8.263857 6.344937 0.172472 0.082275 1.019690 0.145762 0.223439 -7.745885 -3.275862 -3.573121 5.041188 0.000000 0.000000 0.000000 2.651218 0.010998 -0.573553 -0.917517 -0.113814 -4.607873 1.692785 2.093810 5.109334 0.000000 0.000000 0.000000 2.385498 0.141758 -3.961313 0.679081 -0.662935 4.631298 -2.699640 2.475372 -0.056556 2.761038 0.741879 -20.663414 0.000000 0.000000 0.000000 -27.449594 -11.243492 1.283109 -24.007999 9.527404 -3.453451 14.927190 -10.466068 -1.067123 0.000000 0.000000 0.000000 29.331819 4.376548 2.779637 31.880820 -7.157842 -4.986426 -12.297189 19.508124 -1.039571 0.000000 0.000000 0.000000 
-0.000835 0.933512 0.003923 -1.222097 8.746223 6.632947 0.759187 0.032520 0.779816 -0.286694 0.231639 -7.805058 -3.340172 -3.957053 4.589967 0.000000 0.000000 0.000000 2.619897 -0.005591 -0.436407 -0.221148 -0.196155 -5.207008 1.543690 1.833066 4.989210 0.000000 0.000000 0.000000 3.185936 0.152347 -4.233279 0.385645 -0.349879 2.241467 -3.049908 2.348515 2.275310 2.890605 0.669296 -20.393588 0.000000 0.000000 0.000000 -26.557213 -11.554161 1.528498 -25.167978 10.534130 -3.910035 14.886802 -11.449722 -1.173579 0.000000 0.000000 0.000000 29.705293 6.139216 4.242999 32.560235 -8.671940 -5.592123 -12.668392 19.221280 -1.077204 0.000000 0.000000 0.000000 
-0.002248 0.932355 0.005702 -1.342764 9.277990 6.768065 1.287039 -0.015453 0.518123 -0.666839 0.231736 -7.547190 -3.415383 -4.379634 4.121533 0.000000 0.000000 0.000000 2.670082 -0.023891 -0.288081 0.271970 -0.247692 -5.528575 1.347924 1.496797 4.787829 0.000000 0.000000 0.000000 3.269563 0.149950 -4.256915 0.166851 -0.290229 2.856269 -2.728863 3.027253 1.316412 2.025776 1.286879 -21.011891 0.000000 0.000000 0.000000 -28.460073 -11.971854 1.223777 -24.192164 11.860257 -3.811710 15.975236 -11.867422 -1.341303 0.000000 0.000000 0.000000 30.632576 6.216717 4.667200 32.007748 -9.904786 -5.774053 -12.694370 18.533865 -1.031081 0.000000 0.000000 0.000000 
-0.004579 0.931824 0.006841 -1.149401 9.873622 6.405334 1.404334 -0.002024 0.806254 -0.801963 0.227439 -7.315512 -3.636139 -4.900733 3.940991 0.000000 0.000000 0.000000 2.698307 -0.102973 0.351391 0.306931 -0.260366 -5.741612 1.097967 1.051192 4.531090 0.000000 0.000000 0.000000 3.327310 0.125035 -3.803261 0.337683 -0.388909 2.921179 -3.426100 3.136057 0.989269 2.653979 0.924295 -20.149837 0.000000 0.000000 0.000000 -29.462269 -12.506061 1.196701 -23.097594 11.986722 -3.545495 15.313287 -13.437294 -1.435381 0.000000 0.000000 0.000000 31.128982 6.177525 4.914432 32.037586 -9.336809 -5.708458 -11.972022 17.791017 -0.879498 0.000000 0.000000 0.000000 
-0.007759 0.930910 0.007266 -1.108745 9.649263 5.905688 1.389095 -0.044150 0.165178 -0.519480 0.180205 -5.110891 -3.143486 -4.733083 2.749455 0.000000 0.000000 0.000000 2.405697 -0.206786 1.226149 1.094026 -0.340440 -6.330818 1.259950 1.447108 4.430504 0.000000 0.000000 0.000000 3.739201 0.070588 -2.848161 -0.005138 -0.274670 3.807171 -3.389663 2.900842 0.292602 1.647259 1.474505 -20.756101 0.000000 0.000000 0.000000 -30.618561 -12.285213 1.117792 -23.514458 10.986441 -3.453746 15.122796 -15.434916 -1.610275 0.000000 0.000000 0.000000 30.897862 7.250329 5.431803 32.225203 -8.644966 -5.511592 -11.158011 17.005736 -0.745705 0.000000 0.000000 0.000000 
-0.011276 0.930114 0.007132 -1.087286 8.918197 5.674227 1.807928 -0.180156 -1.558396 -1.080788 0.131920 -1.460087 -2.371087 -4.065843 1.437186 0.000000 0.000000 0.000000 2.946465 -0.285796 1.646047 0.305314 -0.305286 -6.766574 1.497674 2.063367 4.167921 0.000000 0.000000 0.000000 4.434416 -0.001781 -1.864445 -0.276919 -0.123364 3.834008 -4.295543 3.400345 0.275716 2.302022 1.159585 -20.671892 0.000000 0.000000 0.000000 -31.158940 -12.931163 1.350679 -24.350797 9.707932 -3.343174 15.011322 -17.377119 -1.810845 0.000000 0.000000 0.000000 31.124709 8.072111 6.209749 32.759180 -7.464058 -5.393842 -10.040592 17.507650 -0.636403 0.000000 0.000000 0.000000 
-0.014174 0.929540 0.006676 -1.382678 7.746746 4.903469 2.496697 -0.387832 -4.416604 -1.730888 0.023308 5.257874 -1.293363 -2.777947 -0.032706 0.000000 0.000000 0.000000 3.551542 -0.352713 1.938805 -0.183632 -0.238117 -6.038090 1.846130 3.042234 3.652537 0.000000 0.000000 0.000000 5.168986 -0.121867 -0.361070 -1.126056 0.329895 3.913685 -3.970123 2.880851 0.499031 2.001912 1.217285 -20.930523 0.000000 0.000000 0.000000 -32.311730 -13.216053 2.065285 -24.715134 7.840083 -3.195832 14.437854 -19.682009 -1.913909 0.000000 0.000000 0.000000 31.241039 9.186602 6.483930 32.592063 -6.555629 -5.075034 -8.665318 17.675645 -0.495082 0.000000 0.000000 0.000000 
-0.015718 0.928528 0.007331 -1.545189 6.745945 4.400091 3.393804 -0.650452 -8.527298 -2.959338 -0.019508 14.475497 -0.740789 -2.452153 -1.418640 0.000000 0.000000 0.000000 3.763558 -0.430460 2.414968 -0.313906 -0.224580 -5.943255 2.171828 3.953581 3.261036 0.000000 0.000000 0.000000 5.357747 -0.235645 1.028395 -1.068729 0.294846 4.468830 -4.294361 2.955374 0.447206 2.564191 0.943110 -21.461598 0.000000 0.000000 0.000000 -32.723703 -14.839728 3.364822 -26.614857 6.225309 -3.212878 15.819129 -21.506615 -2.364852 0.000000 0.000000 0.000000 31.346635 10.259990 7.100734 32.620406 -5.026533 -4.711926 -8.009610 17.982851 -0.430608 0.000000 0.000000 0.000000 
-0.015273 0.926899 0.010112 -1.877087 6.184313 3.950367 4.207018 -0.892278 -12.928260 -3.022858 -0.316031 24.131608 -1.968042 -5.041927 -1.179116 0.000000 0.000000 0.000000 4.089167 -0.543356 3.091135 -0.422013 -0.221297 -6.023862 2.322692 4.536549 2.782310 0.000000 0.000000 0.000000 5.785860 -0.291121 1.558382 -1.301570 0.399925 5.134387 -3.937357 2.030108 0.839798 2.565084 0.785385 -21.343204 0.000000 0.000000 0.000000 -33.244885 -15.329398 4.382437 -27.212349 3.886220 -3.005232 15.427700 -23.163747 -2.427301 0.000000 0.000000 0.000000 30.995865 11.795027 7.563826 32.943870 -4.766291 -4.582904 -7.777555 17.634480 -0.411073 0.000000 0.000000 0.000000 
-0.012794 0.925529 0.015399 -2.287046 4.153936 4.426389 5.367589 -1.018275 -17.457340 -3.595509 -0.127233 30.148471 -4.928162 -6.750928 5.838018 0.000000 0.000000 0.000000 3.606814 -0.382134 2.043288 0.491481 -0.219069 -4.576087 2.925029 6.315061 2.094620 0.000000 0.000000 0.000000 6.167430 -0.326509 1.690018 -1.951999 0.796449 4.804135 -3.291196 2.432009 0.732062 2.590438 0.764212 -22.083647 0.000000 0.000000 0.000000 -34.972143 -15.989424 5.256135 -26.947964 4.373988 -3.124794 15.227835 -27.332405 -2.793150 0.000000 0.000000 0.000000 30.743982 11.397698 6.929325 32.860095 -4.741780 -4.486998 -7.118151 17.907123 -0.337216 0.000000 0.000000 0.000000 
-0.008614 0.924704 0.023818 -2.616172 2.257884 4.398815 6.956281 -0.865907 -20.229784 -2.426833 -0.319102 28.741647 -13.438709 -11.594084 21.683157 0.000000 0.000000 0.000000 2.882053 -0.298603 1.621934 1.461572 -0.235184 -2.848134 3.506991 8.035715 1.574986 0.000000 0.000000 0.000000 6.466450 -0.395374 2.316737 -2.144966 0.938990 4.920333 -2.749044 1.916419 0.165446 1.548682 1.064332 -21.283162 0.000000 0.000000 0.000000 -36.096666 -15.835500 5.948137 -26.963888 3.764048 -3.140284 14.594417 -29.241356 -2.776642 0.000000 0.000000 0.000000 31.277423 11.791299 6.542538 32.224485 -5.669217 -4.422250 -7.247590 19.288267 -0.415614 0.000000 0.000000 0.000000 
-0.003037 0.925591 0.034613 -2.774169 0.266127 4.382133 8.677118 -0.535452 -21.864238 0.327938 -0.877488 22.077483 -27.093237 -15.937985 42.523300 0.000000 0.000000 0.000000 2.652779 -0.297277 1.643572 0.913785 -0.149906 -1.720459 4.225654 9.701090 1.684725 0.000000 0.000000 0.000000 5.828088 -0.436740 3.149353 -1.545289 0.688543 3.358511 -2.348350 1.574578 0.925022 0.647043 1.416556 -21.732308 0.000000 0.000000 0.000000 -36.484007 -15.021442 6.121094 -26.764701 3.269719 -3.208766 12.618958 -30.140301 -2.287946 0.000000 0.000000 0.000000 30.718239 12.686301 6.532302 32.596737 -6.857375 -4.637642 -7.162431 19.197535 -0.421824 0.000000 0.000000 0.000000 
